<?xml version="1.0" encoding="utf-8"?>
<!-- Generator: Adobe Illustrator 22.1.0, SVG Export Plug-In . SVG Version: 6.00 Build 0)  -->
<svg version="1.1" id="Слой_1" xmlns="http://www.w3.org/2000/svg" xmlns:xlink="http://www.w3.org/1999/xlink" x="0px" y="0px"
	 viewBox="0 0 32 32" style="enable-background:new 0 0 32 32;" xml:space="preserve">
<style type="text/css">
	.st0{fill:#5446FF;}
	.st1{fill:#FFFFFF;}
</style>
<path class="st0" d="M1,16C1,7.7,7.7,1,16,1s15,6.7,15,15c0,8.3-6.7,15-15,15S1,24.3,1,16z"/>
<path class="st1" d="M24.5,7.5c-0.7-0.7-1.8-0.7-2.5,0l-3.7,3.8l-9-3l-1.9,1.9l7.5,4.6l-3.8,4l-2.4-0.4L7,20.2l3.6,1.3l1.3,3.6
	l1.7-1.7l-0.4-2.4l4-3.8l4.6,7.5l1.9-1.9l-3-9l3.8-3.7C25.2,9.3,25.2,8.2,24.5,7.5z"/>
<path class="st1" d="M16,30C8.3,30,2,23.7,2,16H0c0,8.8,7.2,16,16,16V30z M30,16c0,7.7-6.3,14-14,14v2c8.8,0,16-7.2,16-16H30z M16,2
	c7.7,0,14,6.3,14,14h2c0-8.8-7.2-16-16-16V2z M16,0C7.2,0,0,7.2,0,16h2C2,8.3,8.3,2,16,2V0z"/>
</svg>
