<?xml version="1.0" encoding="utf-8"?>
<!-- Generator: Adobe Illustrator 22.1.0, SVG Export Plug-In . SVG Version: 6.00 Build 0)  -->
<svg version="1.1" id="Слой_1" xmlns="http://www.w3.org/2000/svg" xmlns:xlink="http://www.w3.org/1999/xlink" x="0px" y="0px"
	 viewBox="0 0 32 32" style="enable-background:new 0 0 32 32;" xml:space="preserve">
<style type="text/css">
	.st0{fill:#5446FF;}
	.st1{fill:#FFFFFF;}
</style>
<path class="st0" d="M1,16C1,7.7,7.7,1,16,1s15,6.7,15,15c0,8.3-6.7,15-15,15S1,24.3,1,16z"/>
<path class="st1" d="M21.3,25c0.7,0,1.2-0.2,1.6-0.7c0.5-0.5,0.6-1.2,0.6-2V10c0-1,0-1.4-0.3-1.9c-0.3-0.6-1-1.1-1.9-1.1
	s-1.6,0.4-1.9,1.1C19.3,8.6,19.2,9,19.2,10v6.1l-4.6-7C13.7,7.6,13.1,7,12.2,7c-0.7,0-1.2,0.2-1.6,0.7c-0.5,0.5-0.6,1.2-0.6,2V22
	c0,1,0,1.4,0.3,1.9c0.3,0.6,1,1.1,1.9,1.1c0.8,0,1.6-0.4,1.9-1.1c0.3-0.5,0.3-0.9,0.3-1.9V16l4.6,7C19.8,24.4,20.4,25,21.3,25z"/>
<path class="st1" d="M16,30C8.3,30,2,23.7,2,16H0c0,8.8,7.2,16,16,16V30z M30,16c0,7.7-6.3,14-14,14v2c8.8,0,16-7.2,16-16H30z M16,2
	c7.7,0,14,6.3,14,14h2c0-8.8-7.2-16-16-16V2z M16,0C7.2,0,0,7.2,0,16h2C2,8.3,8.3,2,16,2V0z"/>
</svg>
