<?xml version="1.0" encoding="utf-8"?>
<!-- Generator: Adobe Illustrator 22.1.0, SVG Export Plug-In . SVG Version: 6.00 Build 0)  -->
<svg version="1.1" id="Слой_1" xmlns="http://www.w3.org/2000/svg" xmlns:xlink="http://www.w3.org/1999/xlink" x="0px" y="0px"
	 viewBox="0 0 32 32" style="enable-background:new 0 0 32 32;" xml:space="preserve">
<style type="text/css">
	.st0{fill:#5446FF;}
	.st1{fill:#FFFFFF;}
</style>
<path class="st0" d="M1,16C1,7.7,7.7,1,16,1s15,6.7,15,15c0,8.3-6.7,15-15,15S1,24.3,1,16z"/>
<path class="st1" d="M23.1,23.4v-0.4c0-0.2-0.1-0.3-0.3-0.4c-0.1,0-2.5-1.1-6.3-1.1v-1.5c0.3-0.1,0.5-0.4,0.5-0.7v-0.5h3.3
	c0,0,0,0,0,0c0.5,0,0.9-0.4,0.9-0.9c0-0.1,0-0.1,0-0.2c0.8-0.2,1.2-0.5,1.3-0.5c0.1-0.1,0.2-0.2,0.2-0.4v-2.3H23
	c0.3,0,0.5-0.2,0.5-0.4c0-0.2-0.2-0.4-0.5-0.4h-1.8c-0.3,0-0.5,0.2-0.5,0.4c0,0.2,0.2,0.4,0.5,0.4h0.4v2.1c-0.2,0.1-0.6,0.2-1.2,0.4
	l-0.3-0.3c-0.2-0.2-0.5-0.3-0.8-0.2c0,0-0.9,0.1-2.5,0.2V16c1.7-0.1,2.5-0.4,2.6-0.5c0.4-0.2,0.6-0.5,0.5-0.9l-0.7-6.5
	c0-0.3-0.2-0.6-0.6-0.7C18.7,7.4,17.8,7,16,7c-1.8,0-2.7,0.4-2.8,0.4c-0.3,0.1-0.5,0.4-0.6,0.7l-0.7,6.5c0,0.4,0.2,0.7,0.5,0.9
	c0.1,0,1,0.4,2.6,0.5v0.7c-1.5,0-2.4-0.2-2.5-0.2c-0.3,0-0.6,0-0.8,0.2l-0.3,0.3c-0.6-0.2-1-0.3-1.2-0.4v-2.1h0.4
	c0.3,0,0.5-0.2,0.5-0.4c0-0.2-0.2-0.4-0.5-0.4H9c-0.3,0-0.5,0.2-0.5,0.4c0,0.2,0.2,0.4,0.5,0.4h0.4v2.3c0,0.2,0.1,0.3,0.2,0.4
	c0,0,0.5,0.2,1.3,0.5c0,0.2,0,0.4,0,0.5c0.1,0.3,0.5,0.5,0.9,0.5h3.3v0.5c0,0.3,0.2,0.6,0.5,0.7v1.5c-3.9,0.1-6.2,1.1-6.3,1.1
	c-0.2,0.1-0.3,0.2-0.3,0.4v0.4c-0.3,0.1-0.4,0.4-0.4,0.7c0,0.5,0.4,0.8,0.9,0.8c0.5,0,0.9-0.4,0.9-0.8c0-0.3-0.2-0.6-0.4-0.7v-0.1
	c0.7-0.3,2.7-0.9,5.7-1v1.1c-0.3,0.1-0.4,0.4-0.4,0.7c0,0.5,0.4,0.8,0.9,0.8c0.5,0,0.9-0.4,0.9-0.8c0-0.3-0.2-0.6-0.4-0.7v-1.1
	c2.9,0.1,5,0.7,5.7,1v0.1c-0.3,0.1-0.4,0.4-0.4,0.7c0,0.5,0.4,0.8,0.9,0.8c0.5,0,0.9-0.4,0.9-0.8C23.5,23.9,23.3,23.6,23.1,23.4z
	 M14.5,9.5c0,0,0.5-0.2,1.5-0.2c1,0,1.5,0.2,1.5,0.2c0.1,0,0.2,0.2,0.1,0.3c0,0.1-0.1,0.1-0.2,0.1c0,0-0.1,0-0.1,0
	c0,0-0.4-0.2-1.3-0.2c-0.8,0-1.3,0.2-1.3,0.2c-0.1,0-0.3,0-0.3-0.1C14.4,9.6,14.4,9.5,14.5,9.5z M14.3,10.8c0,0,0.6-0.2,1.7-0.2
	c1.1,0,1.7,0.2,1.7,0.2c0.1,0,0.2,0.2,0.1,0.3c0,0.1-0.1,0.1-0.2,0.1c0,0-0.1,0-0.1,0c0,0-0.5-0.2-1.5-0.2s-1.5,0.2-1.5,0.2
	c-0.1,0-0.3,0-0.3-0.1C14.1,10.9,14.2,10.8,14.3,10.8z M16,12.2c-1.2,0-1.8,0.2-1.8,0.2c-0.1,0-0.3,0-0.3-0.1c0-0.1,0-0.2,0.1-0.3
	c0,0,0.7-0.3,1.9-0.3c1.3,0,1.9,0.3,1.9,0.3c0.1,0,0.2,0.2,0.1,0.3c0,0.1-0.1,0.1-0.2,0.1c0,0-0.1,0-0.1,0
	C17.8,12.5,17.2,12.2,16,12.2z"/>
<path class="st1" d="M16,30C8.3,30,2,23.7,2,16H0c0,8.8,7.2,16,16,16V30z M30,16c0,7.7-6.3,14-14,14v2c8.8,0,16-7.2,16-16H30z M16,2
	c7.7,0,14,6.3,14,14h2c0-8.8-7.2-16-16-16V2z M16,0C7.2,0,0,7.2,0,16h2C2,8.3,8.3,2,16,2V0z"/>
</svg>
