<?xml version="1.0" encoding="utf-8"?>
<!-- Generator: Adobe Illustrator 22.1.0, SVG Export Plug-In . SVG Version: 6.00 Build 0)  -->
<svg version="1.1" id="Слой_1" xmlns="http://www.w3.org/2000/svg" xmlns:xlink="http://www.w3.org/1999/xlink" x="0px" y="0px"
	 viewBox="0 0 26 23" style="enable-background:new 0 0 26 23;" xml:space="preserve">
<path fill="#5446FF" d="M10.4,4.6c0.7-0.3,0.9-1.1,0.6-1.7l-1-2.2C9.8,0.1,9-0.2,8.4,0.1C6.6,0.9,5.1,1.9,3.9,3.1c-1.5,1.4-2.5,3-3,4.8
	C0.3,9.7,0,12.1,0,15.3v6.5C0,22.4,0.6,23,1.3,23h8.2c0.7,0,1.3-0.6,1.3-1.3v-8.3c0-0.7-0.6-1.3-1.3-1.3H5.6c0-2.1,0.5-3.8,1.5-5.1
	C7.8,6.1,8.9,5.2,10.4,4.6z M25.3,4.6c0.7-0.3,0.9-1.1,0.6-1.7l-1-2.1c-0.3-0.6-1-0.9-1.6-0.6c-1.8,0.8-3.3,1.7-4.5,2.9
	c-1.5,1.4-2.5,3.1-3.1,4.8c-0.5,1.8-0.8,4.2-0.8,7.4v6.5c0,0.7,0.6,1.3,1.3,1.3h8.2c0.7,0,1.3-0.6,1.3-1.3v-8.3
	c0-0.7-0.6-1.3-1.3-1.3h-4c0-2.1,0.5-3.8,1.5-5.1C22.6,6.1,23.7,5.2,25.3,4.6z"/>
</svg>
