<?xml version="1.0" encoding="utf-8"?>
<!-- Generator: Adobe Illustrator 22.1.0, SVG Export Plug-In . SVG Version: 6.00 Build 0)  -->
<svg version="1.1" id="Слой_1" xmlns="http://www.w3.org/2000/svg" xmlns:xlink="http://www.w3.org/1999/xlink" x="0px" y="0px"
	 viewBox="0 0 32 32" style="enable-background:new 0 0 32 32;" xml:space="preserve">
<style type="text/css">
	.st0{fill:#5446FF;}
	.st1{fill:#FFFFFF;}
</style>
<path class="st0" d="M1,16C1,7.7,7.7,1,16,1s15,6.7,15,15c0,8.3-6.7,15-15,15S1,24.3,1,16z"/>
<path class="st1" d="M20,11.7h1.7l-2.6-4.4c-0.2-0.4-0.7-0.5-1-0.3c-0.4,0.2-0.5,0.7-0.3,1L20,11.7z"/>
<path class="st1" d="M14.1,8.1c0.2-0.4,0.1-0.8-0.3-1c-0.4-0.2-0.8-0.1-1,0.3l-2.6,4.4H12L14.1,8.1z"/>
<path class="st1" d="M24.5,13.1H7.4c-0.7,0-1.3,0.6-1.3,1.3v1.4c0,0.7,0.6,1.3,1.3,1.3h0.4l1.2,6.6c0.2,0.8,0.9,1.4,1.6,1.4h0.5h3.2
	c0.3,0,0.7,0,1.2,0h0.4h0.4c0.4,0,0.8,0,1.2,0h3.2h0.5c0.7,0,1.4-0.6,1.6-1.4l1.2-6.6h0.6c0.7,0,1.3-0.6,1.3-1.3v-1.4
	C25.8,13.7,25.2,13.1,24.5,13.1z M13.1,19.7v2.8c0,0.4-0.3,0.7-0.7,0.7c-0.4,0-0.7-0.3-0.7-0.7v-1.2v-2.8c0-0.4,0.3-0.7,0.7-0.7
	c0.4,0,0.7,0.3,0.7,0.7V19.7z M15.4,19.7v2.8c0,0.4-0.3,0.7-0.7,0.7c-0.4,0-0.7-0.3-0.7-0.7v-1.2v-2.8c0-0.4,0.3-0.7,0.7-0.7
	c0.4,0,0.7,0.3,0.7,0.7V19.7z M17.7,21.3v1.2c0,0.4-0.3,0.7-0.7,0.7c-0.4,0-0.7-0.3-0.7-0.7v-2.8v-1.1c0-0.4,0.3-0.7,0.7-0.7
	c0.4,0,0.7,0.3,0.7,0.7V21.3z M20,21.3v1.2c0,0.4-0.3,0.7-0.7,0.7c-0.4,0-0.7-0.3-0.7-0.7v-2.8v-1.1c0-0.4,0.3-0.7,0.7-0.7
	c0.4,0,0.7,0.3,0.7,0.7V21.3z"/>
<path class="st1" d="M16,30C8.3,30,2,23.7,2,16H0c0,8.8,7.2,16,16,16V30z M30,16c0,7.7-6.3,14-14,14v2c8.8,0,16-7.2,16-16H30z M16,2
	c7.7,0,14,6.3,14,14h2c0-8.8-7.2-16-16-16V2z M16,0C7.2,0,0,7.2,0,16h2C2,8.3,8.3,2,16,2V0z"/>
</svg>
