<?xml version="1.0" encoding="utf-8"?>
<!-- Generator: Adobe Illustrator 22.1.0, SVG Export Plug-In . SVG Version: 6.00 Build 0)  -->
<svg version="1.1" id="Слой_1" xmlns="http://www.w3.org/2000/svg" xmlns:xlink="http://www.w3.org/1999/xlink" x="0px" y="0px"
	 viewBox="0 0 32 32" style="enable-background:new 0 0 32 32;" xml:space="preserve">
<style type="text/css">
	.st0{fill:#5446FF;}
	.st1{fill:#FFFFFF;}
</style>
<path class="st0" d="M1,16C1,7.7,7.7,1,16,1s15,6.7,15,15c0,8.3-6.7,15-15,15S1,24.3,1,16z"/>
<path class="st1" d="M12,23.5c0.8,0,2.7-0.1,4.2-1.2v0.8h2.9l0-3.7l1.2-1.3l2.7,5h3.5l-4-7.1l3.9-4.5h-3.6l-3.7,4.4V7.4h-2.9v1.3
	c-0.9-1-2.3-1.8-4.6-1.8c-4.9,0-5.8,3.1-5.8,4.8c0,2.4,1.2,3.7,3.4,4.2l3,0.8c1.6,0.4,2.8,0.7,2.8,1.9c0,1.6-1.7,2-3.2,2
	c-2.7,0-3.2-1.7-3.2-2.5h-3C5.5,20.2,6.5,23.5,12,23.5z M14,14.1l-3.7-0.9c-0.6-0.2-1.6-0.4-1.6-1.6c0-1.4,1.4-1.9,2.6-1.9
	c2.7,0,3,1.7,3.1,2.4h1.8V15C15.5,14.6,14.7,14.4,14,14.1z"/>
<path class="st1" d="M16,30C8.3,30,2,23.7,2,16H0c0,8.8,7.2,16,16,16V30z M30,16c0,7.7-6.3,14-14,14v2c8.8,0,16-7.2,16-16H30z M16,2
	c7.7,0,14,6.3,14,14h2c0-8.8-7.2-16-16-16V2z M16,0C7.2,0,0,7.2,0,16h2C2,8.3,8.3,2,16,2V0z"/>
</svg>
