<svg style="position: absolute; width: 0; height: 0; overflow: hidden;" version="1.1" xmlns="http://www.w3.org/2000/svg"
    xmlns:xlink="http://www.w3.org/1999/xlink">
    <defs>
        <symbol id="icon-logo" viewBox="0 0 260 47">
            <path fill-rule="evenodd" clip-rule="evenodd" d="M167.41 46.29C164.81 46.29 162.53 45.85 160.57 44.98C158.61 44.11 156.98 42.92 155.68 41.43C154.38 39.94 153.4 38.18 152.74 36.16C152.08 34.13 151.75 31.97 151.75 29.67V16.49C151.75 14.28 152.04 12.17 152.61 10.16C153.19 8.16 154.1 6.4 155.36 4.89C156.62 3.38 158.24 2.18 160.22 1.31C162.2 0.44 164.6 0 167.41 0C170.22 0 172.62 0.44 174.6 1.31C176.58 2.19 178.2 3.38 179.46 4.89C180.72 6.4 181.63 8.16 182.21 10.16C182.79 12.17 183.07 14.27 183.07 16.49V29.66C183.07 31.96 182.74 34.12 182.08 36.15C181.42 38.17 180.44 39.93 179.14 41.42C177.84 42.91 176.21 44.09 174.25 44.97C172.29 45.85 170.01 46.29 167.41 46.29ZM167.41 6.52C164.26 6.52 162.03 7.44 160.73 9.27C159.43 11.1 158.78 13.51 158.78 16.49V29.66C158.78 32.64 159.47 35.06 160.86 36.92C162.24 38.77 164.43 39.7 167.41 39.7C170.35 39.7 172.52 38.77 173.93 36.92C175.34 35.06 176.04 32.65 176.04 29.66V16.49C176.04 13.51 175.39 11.1 174.09 9.27C172.79 7.44 170.57 6.52 167.41 6.52ZM94.3 46.62C88.74 46.62 84.87 44.89 81.61 41.63C76.98 36.99 76.91 31.14 76.91 23.47C76.91 15.8 76.98 9.94001 81.61 5.31001C84.87 2.05001 88.74 0.320007 94.3 0.320007C99.86 0.320007 103.74 2.04001 107 5.31001C111.63 9.95001 111.7 15.8 111.7 23.47C111.7 31.14 111.63 37 107 41.63C103.74 44.89 99.86 46.62 94.3 46.62ZM100.44 23.47C100.44 15.16 99.8 13.62 98.78 12.28C97.95 11.19 96.35 10.3 94.3 10.3C92.26 10.3 90.66 11.19 89.82 12.28C88.8 13.62 88.16 15.16 88.16 23.47C88.16 31.78 88.8 33.25 89.82 34.6C90.65 35.69 92.25 36.65 94.3 36.65C96.35 36.65 97.95 35.69 98.78 34.6C99.8 33.25 100.44 31.78 100.44 23.47ZM29.99 46.49C31.72 46.49 33.06 45.91 34.21 44.76C35.49 43.49 35.68 41.76 35.68 39.59V7.99C35.68 5.43 35.65 4.53 34.98 3.19C34.19 1.59 32.3 0.440002 30.06 0.440002C27.82 0.440002 25.93 1.59 25.13 3.19C24.46 4.54 24.43 5.43 24.43 7.99V23.6L12.31 5.76C9.82 2.05 8.25 0.450002 5.69 0.450002C3.96 0.450002 2.62 1.02 1.47 2.17C0.19 3.45 0 5.17 0 7.35V38.94C0 41.5 0.03 42.4 0.72 43.74C1.51 45.34 3.4 46.49 5.64 46.49C7.87 46.49 9.76 45.34 10.56 43.74C11.23 42.39 11.26 41.5 11.26 38.94V23.34L23.37 41.18C25.86 44.89 27.43 46.49 29.99 46.49ZM43.76 44.66C45.33 46.23 47.41 46.23 49.07 46.23V46.24H66.81C69.12 46.24 69.98 46.18 71.1 45.63C72.51 44.96 73.53 43.23 73.53 41.25C73.53 39.27 72.51 37.54 71.1 36.87C69.98 36.32 69.11 36.26 66.81 36.26H53.45V28.26H63.94C66.24 28.26 67.1 28.19 68.22 27.65C69.63 26.98 70.65 25.25 70.65 23.27C70.65 21.29 69.63 19.56 68.22 18.89C67.1 18.34 66.24 18.28 63.94 18.28H53.45V10.67H66.82C69.13 10.67 69.99 10.6 71.11 10.06C72.52 9.39 73.54 7.66 73.54 5.68C73.54 3.7 72.52 1.97 71.11 1.3C69.99 0.750002 69.12 0.690002 66.82 0.690002H49.07C47.41 0.690002 45.33 0.690002 43.76 2.26C42.19 3.83 42.19 5.91 42.19 7.57V39.35C42.19 41.01 42.19 43.09 43.76 44.66ZM126.37 42.83V29.68H132.77C135.11 29.68 137.22 29.36 139.1 28.72C140.98 28.08 142.59 27.16 143.93 25.94C145.27 24.72 146.3 23.21 147.03 21.4C147.76 19.59 148.12 17.53 148.12 15.23C148.12 13.31 147.85 11.48 147.32 9.72999C146.79 7.97999 145.92 6.41999 144.7 5.05999C143.49 3.69999 141.9 2.60999 139.94 1.79999C137.98 0.989987 135.59 0.579987 132.78 0.579987H123.38C122.27 0.579987 121.32 0.959987 120.53 1.72999C119.75 2.48999 119.35 3.38999 119.35 4.40999V42.84C119.35 43.78 119.7 44.59 120.4 45.27C121.1 45.95 121.92 46.29 122.86 46.29C123.84 46.29 124.67 45.93 125.35 45.23C126.03 44.53 126.37 43.72 126.37 42.83ZM132.76 23.14H126.37V7.14999H132.76C134.47 7.14999 135.85 7.38999 136.92 7.85999C137.98 8.32999 138.82 8.93999 139.44 9.67999C140.06 10.43 140.49 11.28 140.72 12.24C140.95 13.2 141.07 14.17 141.07 15.15C141.07 20.48 138.3 23.14 132.76 23.14ZM213.28 44.72C213.94 44.11 214.27 43.33 214.27 42.39C214.27 41.49 213.93 40.74 213.23 40.11C212.54 39.49 211.76 39.18 210.86 39.18H196.03V3.32C196.03 2.43 195.69 1.65 195.01 0.99C194.33 0.33 193.5 0 192.52 0C191.54 0 190.71 0.33 190.03 0.99C189.35 1.65 189.01 2.43 189.01 3.32V42.01C189.01 43.03 189.4 43.89 190.16 44.6C190.93 45.3 191.83 45.65 192.85 45.65H210.88C211.82 45.65 212.62 45.34 213.28 44.72ZM218.11 3.32C218.11 2.43 218.45 1.65 219.13 0.99C219.81 0.33 220.64 0 221.62 0C222.6 0 223.43 0.33 224.11 0.99C224.79 1.65 225.13 2.43 225.13 3.32V42.96C225.13 43.81 224.79 44.58 224.11 45.26C223.43 45.94 222.6 46.28 221.62 46.28C220.64 46.28 219.81 45.94 219.13 45.26C218.45 44.58 218.11 43.81 218.11 42.96V3.32ZM251.19 29.31C251.9 30.1 252.25 31.35 252.25 33.05C252.25 35.18 251.62 36.82 250.35 37.95C249.09 39.11 247.19 39.68 244.63 39.68C243.35 39.68 242.22 39.57 241.24 39.36C240.26 39.15 239.4 38.91 238.65 38.63C238.269 38.4858 237.909 38.3522 237.57 38.2264C237.251 38.1081 236.951 37.9967 236.67 37.89C236.09 37.68 235.57 37.57 235.1 37.57C234.16 37.57 233.39 37.9 232.77 38.56C232.15 39.22 231.84 39.98 231.84 40.83C231.84 41.81 232.29 42.64 233.21 43.32C234.13 44 235.24 44.56 236.54 44.98C237.83 45.41 239.22 45.72 240.69 45.91C242.16 46.11 243.45 46.2 244.56 46.2C246.7 46.2 248.68 45.91 250.51 45.31C252.34 44.72 253.93 43.83 255.27 42.66C256.62 41.49 257.66 40.06 258.41 38.38C259.15 36.69 259.53 34.76 259.53 32.59C259.53 30.72 259.25 29.12 258.7 27.8C258.14 26.48 257.41 25.37 256.49 24.48C255.58 23.58 254.53 22.83 253.36 22.24C252.19 21.65 250.97 21.11 249.69 20.64C248.41 20.17 247.13 19.73 245.85 19.33C244.57 18.93 243.4 18.45 242.33 17.89C241.99 17.72 241.64 17.52 241.28 17.28C240.92 17.05 240.58 16.72 240.26 16.29C239.94 15.87 239.67 15.36 239.46 14.76C239.25 14.16 239.14 13.42 239.14 12.52C239.14 11.37 239.34 10.4 239.72 9.61C240.11 8.83 240.63 8.21 241.29 7.76C241.95 7.31 242.71 6.99 243.56 6.8C244.41 6.61 245.28 6.51 246.18 6.51C247.25 6.51 248.15 6.6 248.9 6.77C249.64 6.95 250.31 7.15 250.91 7.38C251.5 7.62 252.06 7.82 252.57 7.99C253.08 8.17 253.62 8.25 254.17 8.25C255.28 8.25 256.14 7.93 256.76 7.29C257.38 6.65 257.69 5.9 257.69 5.05C257.69 3.99 257.22 3.12 256.31 2.46C255.39 1.8 254.29 1.29 253.01 0.93C251.73 0.57 250.42 0.32 249.08 0.19C247.74 0.07 246.64 0 245.79 0C241.53 0 238.15 1.14 235.65 3.42C233.16 5.7 231.91 8.84 231.91 12.85C231.91 14.77 232.18 16.4 232.74 17.74C233.3 19.08 234.03 20.21 234.95 21.13C235.86 22.05 236.92 22.8 238.11 23.4C239.31 24 240.54 24.52 241.82 24.97C243.1 25.42 244.37 25.84 245.63 26.25C246.89 26.65 248.05 27.11 249.12 27.62C249.79 27.96 250.49 28.52 251.19 29.31Z" fill="Currentcolor"/>
        </symbol>
        <symbol id="icon-header-decor" viewBox="0 0 130 70">
            <path fill-rule="evenodd" clip-rule="evenodd" d="M0 0H1.45661V70H0V0ZM36.0923 0H42.4937V70H36.0923V0ZM69.8517 0H60.1537V70H69.8517V0ZM93.9132 0H87.5063V70H93.9132V0ZM130 0H128.543V70H130V0ZM56.1782 0H48.123V70H56.1782V0ZM73.8328 0H81.888V70H73.8328V0ZM15.1356 0H12.0307V70H15.1356V0ZM114.864 0H117.969V70H114.864V0ZM105.944 0H101.191V70H105.944V0ZM24.0615 0H28.8147V70H24.0615V0Z" fill="white"/>
        </symbol>
        <symbol id="icon-header-decor-mob" viewBox="0 0 40 20">
            <path fill-rule="evenodd" clip-rule="evenodd" d="M6.53564 0H0.621582V20H6.53564V0ZM39.8465 0H38.502V20H39.8465V0ZM25.8752 0H28.7412V20H25.8752V0ZM17.641 0H13.2534V20H17.641V0Z" fill="currentColor"/>
        </symbol>
        <symbol id="icon-awward" viewBox="0 0 230 237">
            <path d="M69.8589 227.178C66.7711 235.199 63.6951 243.232 60.5955 251.254C58.2175 257.417 53.9112 262.102 47.8065 264.823C41.9267 267.45 34.4852 268.609 28.0967 267.532C12.7759 264.942 0.282754 249.006 3.51253 233.306C4.31701 229.379 6.25724 225.593 7.66509 221.831C8.87182 218.613 10.0904 215.383 11.2971 212.165C14.7043 203.115 18.0997 194.064 21.507 185.014C25.7778 173.656 30.0369 162.311 34.3078 150.953C38.9217 138.697 43.5238 126.44 48.1378 114.195C52.5506 102.447 56.9635 90.7114 61.3763 78.9635C65.3278 68.4579 69.4685 57.7748 73.3608 47.1509C77.0756 37.0001 79.8085 25.9976 85.8185 16.8762C86.5402 15.7878 87.3091 14.7348 88.1373 13.7292C96.9748 3.10528 112.023 0.194939 125.049 3.01064C132.419 4.59595 138.915 8.80766 143.706 14.581C148.971 20.9341 151.1 28.4111 153.963 35.9709C155.584 40.2417 157.205 44.5126 158.814 48.7835C163.014 59.8688 167.213 70.9542 171.413 82.0395C176.323 95.0059 181.233 107.96 186.143 120.927C191.076 133.952 196.009 146.978 200.943 160.004C205.214 171.266 209.484 182.541 213.755 193.804C216.666 201.506 219.588 209.195 222.498 216.897C223.397 219.275 224.379 221.63 225.196 224.031C229.194 235.661 229.194 248.237 220.783 257.961C214.702 265.001 205.308 268.869 196.033 268.337C186.32 267.781 176.56 262.386 171.922 253.643C171.496 252.851 171.129 252.022 170.81 251.183L161.937 226.965C161.961 226.953 69.8589 227.178 69.8589 227.178ZM115.904 100.649L89.5215 172.982H142.31L115.904 100.649Z" stroke="white" stroke-width="4" stroke-miterlimit="10" fill="transparent"/>
        </symbol>
        <symbol id="icon-arrow" viewBox="0 0 41 16">
            <path d="M1 7C0.447715 7 4.82823e-08 7.44772 0 8C-4.82823e-08 8.55228 0.447715 9 1 9L1 7ZM41.7071 8.70711C42.0976 8.31659 42.0976 7.68342 41.7071 7.2929L35.3431 0.928935C34.9526 0.538411 34.3195 0.538411 33.9289 0.928935C33.5384 1.31946 33.5384 1.95262 33.9289 2.34315L39.5858 8L33.9289 13.6569C33.5384 14.0474 33.5384 14.6805 33.9289 15.0711C34.3195 15.4616 34.9526 15.4616 35.3431 15.0711L41.7071 8.70711ZM1 9L41 9L41 7L1 7L1 9Z" fill="white"/>
        </symbol>
        <symbol id="icon-presentation" viewBox="0 0 50 50">
            <path fill-rule="evenodd" clip-rule="evenodd" d="M36.3228 21.6446V12.1822C36.3228 11.9114 36.1977 11.6611 36.0207 11.4632L25.412 0.323105C25.214 0.114822 24.9325 0 24.6513 0H7.83157C4.72641 0 2.24609 2.5322 2.24609 5.63774V37.4428C2.24609 40.5483 4.72641 43.0389 7.83157 43.0389H21.1082C23.6195 47.2073 28.1841 50 33.3839 50C41.283 50 47.7337 43.5806 47.7337 35.6712C47.7444 28.7621 42.7837 22.9889 36.3228 21.6446ZM25.6935 3.65791L32.811 11.1504H28.1944C26.8188 11.1504 25.6935 10.0147 25.6935 8.63914V3.65791ZM7.83157 40.9546C5.88303 40.9546 4.33044 39.3913 4.33044 37.4428V5.63774C4.33044 3.67851 5.88303 2.08435 7.83157 2.08435H23.6092V8.63914C23.6092 11.1713 25.6622 13.2347 28.1944 13.2347H34.2384V21.3734C34.1024 21.3689 33.9782 21.3604 33.8589 21.3523L33.8588 21.3523L33.8587 21.3523C33.7041 21.3418 33.5578 21.3318 33.4049 21.3318C29.768 21.3318 26.4229 22.7283 23.901 24.9168H10.6663C10.0929 24.9168 9.6241 25.3857 9.6241 25.9586C9.6241 26.532 10.0929 27.0008 10.6663 27.0008H21.9627C21.2227 28.043 20.6078 29.0852 20.1286 30.2315H10.6663C10.0929 30.2315 9.6241 30.7003 9.6241 31.2737C9.6241 31.8466 10.0929 32.3158 10.6663 32.3158H19.4511C19.1906 33.358 19.0552 34.5146 19.0552 35.6712C19.0552 37.5469 19.4199 39.402 20.0764 40.9653H7.83157V40.9546ZM33.3946 47.9263C26.6418 47.9263 21.1498 42.4343 21.1498 35.6815C21.1498 28.9288 26.6312 23.4367 33.3946 23.4367C40.1577 23.4367 45.639 28.9288 45.639 35.6815C45.639 42.4343 40.1474 47.9263 33.3946 47.9263ZM10.6662 21.78H21.2226C21.796 21.78 22.2648 21.3108 22.2648 20.7378C22.2648 20.1645 21.796 19.6957 21.2226 19.6957H10.6662C10.0928 19.6957 9.62402 20.1645 9.62402 20.7378C9.62402 21.3108 10.0928 21.78 10.6662 21.78ZM34.4469 40.0791L38.7297 35.4626C39.126 35.046 39.7719 35.0147 40.1991 35.4107C40.6161 35.7964 40.6371 36.4632 40.2411 36.8801L34.1341 43.4349C33.9362 43.6432 33.6653 43.7683 33.3735 43.7683C33.0817 43.7683 32.8108 43.6432 32.6128 43.4349L26.5166 36.8801C26.1202 36.4632 26.1515 35.8067 26.5684 35.4107C26.9854 35.0147 27.6522 35.046 28.0482 35.4626L32.3626 40.0791V28.6995C32.3626 28.1261 32.8314 27.6573 33.4048 27.6573C33.9777 27.6573 34.4469 28.1261 34.4469 28.6995V40.0791Z" fill="white"/>
        </symbol>
        <symbol id="icon-navigate" viewBox="0 0 50 50">
            <path fill-rule="evenodd" clip-rule="evenodd" d="M35.9553 20.9263C35.7076 21.1789 35.3829 21.3052 35.0582 21.3052C34.7334 21.3052 34.4087 21.1789 34.1612 20.9259C33.9795 20.7408 29.7174 16.3382 29.7174 11.6998C29.7174 8.69487 32.1132 6.25 35.0582 6.25C38.0043 6.25 40.4011 8.69487 40.4011 11.7C40.4011 16.3385 36.1368 20.7412 35.9553 20.9263ZM37.8633 11.6998C37.8633 10.1228 36.6051 8.83972 35.0582 8.83972C33.5126 8.83972 32.255 10.1228 32.2552 11.6998C32.2552 14.1302 33.9628 16.6714 35.0584 18.0515C36.1546 16.6714 37.8633 14.13 37.8633 11.6998ZM34.9868 23.705H15.0132C12.2697 23.705 10.0378 21.4262 10.0378 18.6254C10.0378 15.8266 12.2697 13.5497 15.0132 13.5497H27.4973C28.1982 13.5497 28.7662 12.9699 28.7662 12.2548C28.7662 11.5397 28.1982 10.96 27.4973 10.96H15.0132C10.8705 10.96 7.5 14.3986 7.5 18.6254C7.5 22.8542 10.8705 26.2947 15.0132 26.2947H34.9868C37.7303 26.2947 39.9622 28.5735 39.9622 31.3745C39.9622 34.1733 37.7303 36.4502 34.9868 36.4502H22.395C21.6942 36.4502 21.1261 37.03 21.1261 37.7451C21.1261 38.4602 21.6942 39.0399 22.395 39.0399H34.9868C39.1295 39.0399 42.5 35.6013 42.5 31.3745C42.5 27.1455 39.1295 23.705 34.9868 23.705ZM14.8343 28.6944C11.8892 28.6944 9.4934 31.1395 9.4934 34.1446C9.4934 38.7827 13.7555 43.1856 13.9371 43.3707C14.1751 43.6136 14.4977 43.75 14.8344 43.75C15.1709 43.75 15.4937 43.6136 15.7318 43.3707C15.9132 43.1854 20.1751 38.7827 20.1751 34.1446C20.1748 31.1395 17.7791 28.6944 14.8343 28.6944ZM14.8343 40.4959C13.7384 39.1156 12.0312 36.5746 12.0312 34.1446C12.0312 32.5673 13.2887 31.2841 14.8343 31.2841C16.3798 31.2841 17.637 32.5674 17.637 34.1446C17.637 36.5746 15.9297 39.1156 14.8343 40.4959Z" fill="white"/>
        </symbol>
        <symbol id="icon-zoom" viewBox="0 0 40 40">
            <path fill-rule="evenodd" clip-rule="evenodd" d="M4.0625 17.2344C4.0625 24.4922 9.94531 30.3672 17.2031 30.3672C24.4531 30.3672 30.3359 24.4844 30.3359 17.2344C30.3359 9.98438 24.4609 4.10156 17.2031 4.10156C9.94531 4.10156 4.0625 9.97656 4.0625 17.2344ZM29.8203 27.6094L38.6719 36.4609C39.2969 37.0859 39.2969 38.0937 38.6797 38.7187C38.0703 39.3359 36.8281 39.1328 36.4219 38.7187L27.5703 29.8672C24.75 32.1875 21.1406 33.5781 17.2031 33.5781C8.17188 33.5781 0.859375 26.2578 0.859375 17.2344C0.859375 8.21094 8.16406 0.890625 17.1953 0.890625C26.2266 0.890625 33.5391 8.21094 33.5391 17.2344C33.5391 21.1719 32.1406 24.7891 29.8203 27.6094ZM18.7891 15.6406H22.6406C23.5156 15.6406 24.2344 16.3516 24.2344 17.2344C24.2344 18.1172 23.5234 18.8281 22.6406 18.8281H18.7891V22.6797C18.7891 23.5625 18.0781 24.2735 17.1953 24.2735C16.3125 24.2735 15.6016 23.5625 15.6016 22.6797V18.8281H11.75C10.8672 18.8281 10.1562 18.1172 10.1562 17.2344C10.1562 16.3516 10.8672 15.6406 11.75 15.6406H15.6016V11.7891C15.6016 10.9063 16.3125 10.1953 17.1953 10.1953C18.0781 10.1953 18.7891 10.9063 18.7891 11.7891V15.6406Z" fill="white"/>
        </symbol>
        <symbol id="icon-download" viewBox="0 0 45.5 50">
            <path fill="currentColor" d="M34.1,21.6v-9.5c0-0.3-0.1-0.5-0.3-0.7L23.2,0.3C23,0.1,22.7,0,22.4,0H5.6C2.5,0,0,2.5,0,5.6v31.8 C0,40.5,2.5,43,5.6,43h13.3c2.5,4.2,7.1,7,12.3,7c7.9,0,14.3-6.4,14.3-14.3C45.5,28.8,40.5,23,34.1,21.6z M23.4,3.7l7.1,7.5h-4.6 c-1.4,0-2.5-1.1-2.5-2.5V3.7z M5.6,41c-1.9,0-3.5-1.6-3.5-3.5V5.6c0-2,1.6-3.6,3.5-3.6h15.8v6.6c0,2.5,2.1,4.6,4.6,4.6h6v8.1 c-0.1,0-0.3,0-0.4,0h0h0c-0.2,0-0.3,0-0.5,0c-3.6,0-7,1.4-9.5,3.6H8.4c-0.6,0-1,0.5-1,1c0,0.6,0.5,1,1,1h11.3 c-0.7,1-1.4,2.1-1.8,3.2H8.4c-0.6,0-1,0.5-1,1c0,0.6,0.5,1,1,1h8.8c-0.3,1-0.4,2.2-0.4,3.4c0,1.9,0.4,3.7,1,5.3L5.6,41L5.6,41z  M31.1,47.9c-6.8,0-12.2-5.5-12.2-12.2c0-6.8,5.5-12.2,12.2-12.2c6.8,0,12.2,5.5,12.2,12.2C43.4,42.4,37.9,47.9,31.1,47.9z  M8.4,21.8H19c0.6,0,1-0.5,1-1c0-0.6-0.5-1-1-1H8.4c-0.6,0-1,0.5-1,1C7.4,21.3,7.8,21.8,8.4,21.8z M32.2,40.1l4.3-4.6 c0.4-0.4,1-0.4,1.5-0.1c0.4,0.4,0.4,1.1,0,1.5l-6.1,6.6c-0.2,0.2-0.5,0.3-0.8,0.3c-0.3,0-0.6-0.1-0.8-0.3l-6.1-6.6 c-0.4-0.4-0.4-1.1,0.1-1.5c0.4-0.4,1.1-0.4,1.5,0.1l4.3,4.6V28.7c0-0.6,0.5-1,1-1c0.6,0,1,0.5,1,1V40.1z"/>
        </symbol>
        <symbol id="icon-beauty" viewBox="0 0 19.8 18.4">
            <path fill="currentColor" d="M4.2,6.5V1.3L0.6,0.1C0.4,0.9,0,2.9,0,3.9c0,1,0.4,3,0.6,3.8L4.2,6.5z M4.9,6.4l7.3,0.9l1.9,0.2V0.2L4.9,1.4 V6.4z M12.7,11H12v0.7h0.7V11z M12.7,12.4H12v0.7h0.7V12.4z M13.8,18.4c1,0,1.8-0.8,1.8-1.8V8.5L12,8v2.3h1.1c0.2,0,0.4,0.2,0.4,0.4 v2.8c0,0.2-0.2,0.4-0.4,0.4H12v2.8C12,17.6,12.8,18.4,13.8,18.4z M18.4,5c0.2,0,0.4,0.2,0.4,0.4s-0.2,0.4-0.4,0.4 c-0.2,0-0.4-0.2-0.4-0.4S18.2,5,18.4,5z M18.4,2.1c0.2,0,0.4,0.2,0.4,0.4c0,0.2-0.2,0.4-0.4,0.4c-0.2,0-0.4-0.2-0.4-0.4 C18,2.3,18.2,2.1,18.4,2.1z M19.1,3.9c0,0.2-0.2,0.4-0.4,0.4s-0.4-0.2-0.4-0.4c0-0.2,0.2-0.4,0.4-0.4S19.1,3.7,19.1,3.9z M19.8,3.9 c0-2.1-1.7-3.9-3.9-3.9l-1.1,0.1v7.5l1.1,0.1C18.1,7.8,19.8,6,19.8,3.9z"/>
        </symbol>
        <symbol id="icon-bicycle" viewBox="0 0 20.3 13.7">
            <path fill="currentColor" d="M16.1,12.3c-1.6,0-2.8-1.3-2.8-2.8c0-1,0.5-1.9,1.3-2.4l1,2.6c0.1,0.2,0.3,0.3,0.5,0.3c0.1,0,0.1,0,0.2,0 c0.3-0.1,0.4-0.4,0.3-0.7l-1-2.6c0.2,0,0.4-0.1,0.5-0.1c1.6,0,2.8,1.3,2.8,2.8C18.9,11,17.7,12.3,16.1,12.3z M6.2,11.4 c-0.5,0.6-1.3,0.9-2.1,0.9c-1.5-0.1-2.7-1.2-2.7-2.7c0-0.8,0.3-1.5,0.8-2c0.5-0.5,1.3-0.8,2-0.8c0,0,0.1,0,0.1,0c0.1,0,0.2,0,0.3,0 L4,8.5C3.5,8.6,3.2,9,3.2,9.5c0,0.5,0.5,1,1,1c0.4,0,0.7-0.2,0.9-0.5h1.9C6.8,10.5,6.6,11,6.2,11.4z M5,9C5,8.9,5,8.9,4.9,8.8L5.5,7 c0.7,0.4,1.3,1.1,1.4,2H5z M6.4,4.5l2.5,4.2c0,0.1-0.1,0.2-0.1,0.2H8.3C8.1,7.6,7.2,6.3,5.9,5.7L6.4,4.5z M12.2,4L9.8,8.2 c0,0,0,0,0,0L7.3,4H12.2z M16.1,5.3c-0.4,0-0.7,0-1,0.1L13.8,2h0.4c0.7,0,1.3-0.2,1.7-0.7l0.4-0.4c0.2-0.2,0.2-0.5,0-0.7 c-0.2-0.2-0.5-0.2-0.7,0l-0.4,0.4C15,0.8,14.7,1,14.3,1h-1.1c-0.2,0-0.3,0.1-0.4,0.2c-0.1,0.1-0.1,0.3-0.1,0.5L13.1,3c0,0,0,0,0,0v0 H6.6L5.8,1.5l1-0.3C7,1.1,7.1,0.9,7.1,0.7C7,0.4,6.8,0.2,6.5,0.2H3.8c-0.4,0-0.7,0.3-0.7,0.7C3.1,1.5,3.5,2,4.1,2C4.3,2,4.4,2,4.5,2 l0.3-0.1l0.9,1.5L5,5.4C4.8,5.4,4.5,5.3,4.3,5.3C3.1,5.3,2,5.7,1.2,6.6C0.4,7.4,0,8.5,0,9.6c0.1,2.2,1.8,4,4,4c0.1,0,0.1,0,0.1,0 c1.1,0,2.2-0.5,3-1.3c0.6-0.7,1-1.5,1.1-2.4h0.8c0.2,0.1,0.4,0.2,0.7,0.2c0.5,0,1-0.4,1-1c0-0.2-0.1-0.4-0.1-0.5l2.8-4.8l0.7,1.9 C12.9,6.5,12,7.9,12,9.5c0,2.3,1.9,4.2,4.2,4.2s4.2-1.9,4.2-4.2C20.3,7.2,18.4,5.3,16.1,5.3z"/>
        </symbol>
        <symbol id="icon-carsharing" viewBox="0 0 22.5 19.5">
            <path fill="currentColor" d="M17.6,14.6c-0.9,0-1.7-0.9-1.7-2.1s0.8-2.1,1.7-2.1s1.7,0.9,1.7,2.1S18.6,14.6,17.6,14.6z M3.2,12.5 c0-1.1,0.8-2.1,1.7-2.1c0.9,0,1.7,0.9,1.7,2.1s-0.8,2.1-1.7,2.1C3.9,14.6,3.2,13.6,3.2,12.5z M5.8,3.4c2.2-1.8,8.8-1.8,11,0 c0.4,0.4,1,1.7,1.5,3.4h-14C4.8,5.2,5.3,3.8,5.8,3.4z M22.4,6c-0.1-0.2-0.3-0.3-0.4-0.3h-2.2c-0.5-1.7-1.3-3.5-2-4.1 c-2.8-2.2-10.1-2.2-12.9,0C4,2.3,3.3,4,2.8,5.8H0.6C0.4,5.8,0.2,5.9,0.1,6C0,6.2,0,6.4,0,6.6l0.3,1.9c0.1,0.3,0.3,0.6,0.6,0.6h0.7 c-0.6,0.9-0.9,2-0.9,3.1c0,1.4,0.4,2.6,1.2,3.5l0,0v2.7c0,0.6,0.4,1.1,0.9,1.1h2c0.5,0,0.9-0.5,0.9-1.1v-1.1h11.3v1.1 c0,0.6,0.4,1.1,0.9,1.1h2c0.5,0,0.9-0.5,0.9-1.1v-2.6c0.8-0.9,1.2-2.2,1.2-3.5c0-1.1-0.3-2.3-1-3.2h0.7c0.3,0,0.5-0.2,0.6-0.6 l0.3-1.9C22.5,6.4,22.5,6.2,22.4,6z"/>
        </symbol>
        <symbol id="icon-chatting" viewBox="0 0 17.8 16">
            <path fill="currentColor" d="M17.3,4.4h-2.1v5.2c0,0.4-0.2,0.8-0.5,1.1s-0.7,0.5-1.1,0.5H7.1v1.8c0,0.3,0.2,0.5,0.5,0.5h4.6l2.4,2.4 c0.2,0.2,0.5,0.2,0.7,0c0.1-0.1,0.2-0.2,0.2-0.4v-2.1h1.8c0.3,0,0.5-0.2,0.5-0.5v-8C17.8,4.6,17.6,4.4,17.3,4.4z M2.6,7.3 c-0.3,0-0.5-0.2-0.5-0.5c0-0.3,0.2-0.5,0.5-0.5h7c0.3,0,0.5,0.2,0.5,0.5c0,0.3-0.2,0.5-0.5,0.5H2.6z M2.6,4.2h8.9 c0.3,0,0.5,0.2,0.5,0.5c0,0.3-0.2,0.5-0.5,0.5H2.6C2.3,5.2,2.1,5,2.1,4.7C2.1,4.4,2.3,4.2,2.6,4.2z M2.6,2.1h5.3 c0.3,0,0.5,0.2,0.5,0.5c0,0.3-0.2,0.5-0.5,0.5H2.6c-0.3,0-0.5-0.2-0.5-0.5C2.1,2.3,2.3,2.1,2.6,2.1z M13.6,10.1 c0.3,0,0.5-0.2,0.5-0.5v-9c0-0.3-0.2-0.5-0.5-0.5H0.5C0.2,0,0,0.2,0,0.5v9c0,0.3,0.2,0.5,0.5,0.5h1.8v2.1c0,0.1,0.1,0.3,0.2,0.4 c0.2,0.2,0.5,0.2,0.7,0l2.4-2.4H13.6z"/>
        </symbol>
        <symbol id="icon-events" viewBox="0 0 18.3 20.6">
            <path fill="currentColor" d="M15.9,1.4L14,3.4c-1.7-0.3-3.1,0.6-4.6,1C7.7,4.8,5.8,3.3,4.1,3.1L2.5,1.4H15.9z M18.1,1.2 c0.2-0.2,0.3-0.5,0.2-0.8C18.2,0.2,17.9,0,17.6,0H0.7C0.4,0,0.2,0.2,0.1,0.4C-0.1,0.7,0,1,0.2,1.2l8.2,8.2v8.2L3.7,20 c-0.1,0.1-0.2,0.2-0.2,0.4c0,0.1,0.2,0.2,0.3,0.2h10.7c0.1,0,0.3-0.1,0.3-0.2c0-0.1,0-0.3-0.2-0.4l-4.8-2.3V9.5L18.1,1.2z"/>
        </symbol>
        <symbol id="icon-green" viewBox="0 0 18.1 20.6">
            <path fill="currentColor" d="M9.7,14.4c-0.7,0.2-0.3-1.3-0.1-2.1c0.1-0.1,0.3-0.1,0.4-0.2c0.1,0.6,0.4,1.2,0.8,1.6 C10.5,14,10.1,14.3,9.7,14.4z M8.4,13.8c-0.3,0.1-0.8-0.9-1.2-1.7c0.4,0.2,0.9,0.3,1.4,0.3c0.1,0,0.2,0,0.4,0 C8.9,13.1,8.7,13.7,8.4,13.8z M6.2,13c0.2-0.2,0.4-0.5,0.6-0.8l0.6,1.3C7.4,13.5,7.1,13.6,6.2,13z M17.5,6.1c0-1.6-1.2-2.9-2.7-3 c-0.4-1.1-1.5-2-2.8-2c-0.6,0-1.1,0.2-1.6,0.4C9.9,0.6,8.9,0,7.7,0C6.2,0,5,1.1,4.8,2.5c-0.1,0-0.2-0.1-0.4-0.1c-1.7,0-3,1.4-3,3 c0,0.1,0,0.2,0,0.2C0.6,6.3,0,7.2,0,8.3c0,1,0.4,1.8,1.1,2.3c0,0.1,0,0.1,0,0.2c0,1.7,1.4,3,3,3c0.5,0,1-0.1,1.4-0.3 c0.6,0.4,1.4,0.9,1.8,0.8c0,0,0.1,2.3,0.1,2.9c-0.1,1.1-0.4,2.3-0.6,3.4h3.6c0,0-0.5-2.2-0.6-3c0-0.7,0.2-2.1,0.2-2.1l1.3-1.3 c0.5,0.3,1.1,0.5,1.7,0.5c1.6,0,2.9-1.2,3-2.7c1.1-0.4,2-1.5,2-2.8c0-0.8-0.3-1.5-0.8-2C17.4,6.8,17.5,6.5,17.5,6.1z"/>
        </symbol>
        <symbol id="icon-market" viewBox="0 0 20 18.7">
            <path fill="currentColor" d="M18.5,4.5l-0.3,1.1h-1.7L16.9,4h1.2c0.2,0,0.3,0.1,0.3,0.2C18.5,4.2,18.6,4.3,18.5,4.5z M17.5,8.6H16l0.3-1.5 h1.6L17.5,8.6z M16.9,11.2c0,0.2-0.2,0.3-0.4,0.3h-1.1l0.3-1.5h1.5L16.9,11.2z M12.7,5.6V4h2.7l-0.4,1.7L12.7,5.6L12.7,5.6z  M14.5,8.6h-1.7V7.1h2.1L14.5,8.6z M13.9,11.5h-1.1V10h1.4L13.9,11.5z M11.3,5.6H9L8.6,4h2.7L11.3,5.6L11.3,5.6z M11.3,8.6H9.6 L9.3,7.1h2V8.6z M11.3,11.5h-1L10,10h1.3V11.5z M7.7,11.5c-0.2,0-0.4-0.1-0.4-0.3L7,10h1.5l0.3,1.5H7.7z M6.1,7.1h1.7l0.3,1.5H6.6 L6.1,7.1z M5.7,5.6L5.4,4.5c-0.1-0.2,0-0.3,0.1-0.4C5.5,4.1,5.6,4,5.8,4h1.3l0.4,1.7H5.7z M8.3,15.9c0.4,0,0.7,0.3,0.7,0.7 c0,0.4-0.3,0.7-0.7,0.7c-0.4,0-0.7-0.3-0.7-0.7C7.6,16.2,7.9,15.9,8.3,15.9z M14.9,15.9c0.4,0,0.7,0.3,0.7,0.7 c0,0.4-0.3,0.7-0.7,0.7c-0.4,0-0.7-0.3-0.7-0.7C14.2,16.2,14.5,15.9,14.9,15.9z M19.6,3.2c-0.4-0.4-0.9-0.7-1.5-0.7H5.8 c-0.4,0-0.7,0.1-1,0.3L4.2,0.6C4.1,0.2,3.8,0,3.4,0h-1H0.6C0.3,0,0,0.3,0,0.6v0.1c0,0.4,0.3,0.6,0.6,0.6H3l1.2,4.3l1.7,5.9 c-1,0.2-1.7,1.1-1.7,2.1c0,1.2,0.9,2.1,2,2.2c-0.1,0.3-0.1,0.6-0.1,0.9c0.1,1,0.9,1.9,2,2c1.3,0.1,2.3-0.9,2.3-2.1 c0-0.2,0-0.5-0.1-0.7h2.5c-0.1,0.3-0.1,0.6-0.1,1c0.1,1,1,1.8,2,1.9c1.3,0.1,2.3-0.9,2.3-2.1c0-1.2-1-2.2-2.2-2.2H6.5 c-0.4,0-0.8-0.3-0.8-0.7c0-0.4,0.3-0.8,0.8-0.8h1.3h6.8h1.9c0.8,0,1.6-0.6,1.8-1.4l1.7-6.7C20.1,4.3,19.9,3.7,19.6,3.2z"/>
        </symbol>
        <symbol id="icon-parking" viewBox="0 0 15.4 19.5">
            <path fill="currentColor" d="M4.3,9.8h3.4c1.1,0,1.9-0.3,2.5-0.8C10.7,8.4,11,7.7,11,6.8c0-1-0.3-1.7-0.9-2.2C9.5,4.1,8.7,3.9,7.6,3.9H4.3 V9.8z M0,19.4V0h7.9c2.3,0,4.1,0.6,5.4,1.9c1.3,1.2,2,2.9,2,4.9c0,2.2-0.7,3.8-2.2,5c-1.5,1.2-3.4,1.8-5.6,1.8H4.3v5.8L0,19.4 L0,19.4z"/>
        </symbol>
        <symbol id="icon-powerlift" viewBox="0 0 17.7 20.6">
            <path fill="currentColor" d="M14.3,1.5C13.7,0.7,9.9-1.2,7.8,1C5.7,3.1,7.9,4.6,8.7,5c0.8,0.4,3,0.9,3.9-0.5c0.2,0.6,0.1,5.2-1.2,6.4 c-0.7-0.6-1.6-1-2.6-1c-0.9,0-1.6,0.3-2.3,0.7C5.6,9.3,4.1,8.4,2.3,8.4C1.5,8.4,0.7,8.6,0,8.9v0.5v11.2c0,0,3.3,0.2,3.5-3.6 c0.8,1.1,3.3,2,4.9,2c2.5-0.1,5.7-0.2,8.5-2.8c0.2-0.2,0.5-0.5,0.6-0.9C18.8,12.6,15,2.3,14.3,1.5z"/>
        </symbol>
        <symbol id="icon-shuttlebus" viewBox="0 0 18.9 20.6">
            <path fill="currentColor" d="M15.7,10.8H3V4.1h12.7V10.8z M14,16.6c-0.7,0-1.3-0.6-1.3-1.3c0-0.7,0.6-1.3,1.3-1.3c0.7,0,1.3,0.6,1.3,1.3 C15.3,16,14.7,16.6,14,16.6z M4.8,16.6c-0.7,0-1.3-0.6-1.3-1.3C3.4,14.6,4,14,4.8,14c0.7,0,1.3,0.6,1.3,1.3 C6.1,16,5.5,16.6,4.8,16.6z M4.6,1.9H14v1.4H4.6V1.9z M17.9,5c-0.2-1.6-0.4-2.9-0.9-3.4c-1.7-2.1-14-2.2-15.4,0 C1.3,2.2,1.1,3.4,0.9,5C0.4,5.1,0,5.5,0,6.1v2c0,0.4,0.3,0.8,0.7,1c-0.1,3.2,0,6.5,0.1,8.1c0,1.3,0.8,1.1,0.8,1.1h0.8v1.4 c0,0.5,0.6,1,1.3,1s1.3-0.4,1.3-1v-1.4h9.3v1.4c0,0.5,0.6,1,1.3,1c0.7,0,1.3-0.4,1.3-1v-1.4H17c0,0,1,0.1,1.1-0.5 c0-1.6,0.1-5.3,0-8.7c0.4-0.1,0.7-0.5,0.7-1v-2C18.9,5.5,18.4,5.1,17.9,5z"/>
        </symbol>
        <symbol id="icon-sport" viewBox="0 0 17.7 20.6">
            <path fill="currentColor" d="M8.9,6.5L8.9,6.5c1.8,0,3.3-1.5,3.3-3.3S10.7,0,8.9,0h0C7.1,0,5.6,1.5,5.6,3.3S7.1,6.5,8.9,6.5z M17.1,13.2 l-3.7-2.7l-1.2-2.8c-0.2-0.5-0.7-0.9-1.3-0.8H8.8H6.7c-0.5,0-1.1,0.3-1.3,0.8l-1.2,2.8l-3.7,2.7c-0.6,0.4-0.8,1.3-0.3,1.9 c0.3,0.4,0.7,0.6,1.1,0.6c0.3,0,0.6-0.1,0.8-0.3l4-2.9l-0.1,1l-3.8,3.8c-0.5,0.5-0.7,1.3-0.4,2c0.3,0.7,1,1.1,1.7,1.1h1.8 c-0.5-0.4-0.8-1-0.8-1.7c0-1.3,1-2.3,2.1-2.3h2c0.7,0,1.2,0.5,1.2,0.5H6.8c-0.9,0-1.6,0.8-1.6,1.7c0,1,0.7,1.7,1.6,1.7H10 c0,0,0.1,0,0.1,0h3.8c0.8,0,1.4-0.5,1.7-1.1c0.3-0.7,0.1-1.5-0.4-2l-3.7-3.8l-0.1-1l4,2.9c0.2,0.2,0.5,0.3,0.8,0.3 c0.4,0,0.8-0.2,1.1-0.6C17.8,14.5,17.7,13.7,17.1,13.2z"/>
        </symbol>
        <symbol id="icon-playground" viewBox="0 0 20.2 20.6">
            <path fill="currentColor" d="M19.5,10.7c-0.4,0-0.7,0.3-0.7,0.7v3.4h-2c-1.1,0-2,0.9-2,2v3.1c0,0.4,0.3,0.7,0.7,0.7c0.4,0,0.7-0.3,0.7-0.7 v-1.1h2.7v1.1c0,0.4,0.3,0.7,0.7,0.7c0.4,0,0.7-0.3,0.7-0.7v-8.5C20.2,11,19.9,10.7,19.5,10.7z M3.4,14.8h-2v-3.4 c0-0.4-0.3-0.7-0.7-0.7S0,11.1,0,11.4v8.5c0,0.4,0.3,0.7,0.7,0.7s0.7-0.3,0.7-0.7v-1.1H4v1.1c0,0.4,0.3,0.7,0.7,0.7 c0.4,0,0.7-0.3,0.7-0.7v-3.1C5.4,15.7,4.5,14.8,3.4,14.8z M0,8.7c0,0.4,0.3,0.7,0.7,0.7h4v-4c0-1.6,0.7-3,1.8-4C2.8,1.9,0,5,0,8.7z  M13.7,1.4c1.1,1,1.8,2.4,1.8,4v4h4c0.4,0,0.7-0.3,0.7-0.7C20.2,5,17.3,1.9,13.7,1.4z M10.8,1.4V0.7c0-0.4-0.3-0.7-0.7-0.7 C9.7,0,9.4,0.3,9.4,0.7v0.7c-1.9,0.3-3.4,2-3.4,4v4h3.4v1.3h1.3V9.4h3.4v-4C14.1,3.4,12.6,1.7,10.8,1.4z M14.1,12.1H6 c-0.4,0-0.7,0.3-0.7,0.7c0,0.4,0.3,0.7,0.7,0.7h2v0.7c0,0.9,0.6,1.6,1.3,1.9v3.3H8.7c-0.4,0-0.7,0.3-0.7,0.7c0,0.4,0.3,0.7,0.7,0.7 h2.7c0.4,0,0.7-0.3,0.7-0.7c0-0.4-0.3-0.7-0.7-0.7h-0.7V16c0.8-0.3,1.3-1,1.3-1.9v-0.7h2c0.4,0,0.7-0.3,0.7-0.7 C14.8,12.4,14.5,12.1,14.1,12.1z"/>
        </symbol>
        <symbol id="icon-tray" viewBox="0 0 21.7 15.6">
            <path fill="currentColor" d="M12.2,2.4c2.1,0.3,4.1,1.3,5.6,2.8c1.8,1.8,2.8,4.2,2.9,6.8H1c0-2.6,1-5,2.9-6.8c1.5-1.5,3.5-2.5,5.6-2.8 C9.3,2.2,9.2,1.9,9.2,1.6C9.2,0.7,10,0,10.8,0c0.9,0,1.6,0.7,1.6,1.6C12.5,1.9,12.4,2.2,12.2,2.4z M0,13.3h21.7v2.3H0V13.3z"/>
        </symbol>
        <symbol id="icon-cursor-desktop" viewBox="0 0 22.7 22.7">
            <path fill="currentColor" d="M1.1,3.6l5.6,16.7c0.6,1.8,3.1,1.8,3.8,0.1l2.7-7.2l7.2-2.7c1.8-0.7,1.7-3.2-0.1-3.8L3.6,1.1 C2.1,0.6,0.6,2.1,1.1,3.6z"/>
        </symbol>
        <symbol id="icon-cursor-mobile" viewBox="0 0 40.9 31.7">
            <path fill="#FFFFFF" d="M6.3,6.3C6,6.7,5.4,6.7,5,6.3L3.1,4.4C2.7,4,2.7,3.5,3.1,3.1c0.4-0.4,0.9-0.4,1.3,0L6.3,5 C6.7,5.4,6.7,6,6.3,6.3z M3.3,10.2c0.3,0.1,0.7,0,0.9-0.2c0.1-0.1,0.2-0.3,0.2-0.4c0.1-0.5-0.2-1-0.7-1.1L1.2,7.7 C0.7,7.6,0.2,7.9,0,8.4c-0.1,0.5,0.2,1,0.7,1.1L3.3,10.2z M3.8,14.5c0.2,0,0.3-0.1,0.4-0.2c0.2-0.2,0.3-0.6,0.2-0.9 c-0.1-0.5-0.6-0.8-1.1-0.7l-2.6,0.7C0.2,13.5-0.1,14,0,14.5c0.1,0.5,0.6,0.8,1.1,0.7L3.8,14.5z M9.6,4.5c0.2,0,0.3-0.1,0.4-0.2 c0.2-0.2,0.3-0.6,0.2-0.9L9.5,0.7C9.4,0.2,8.9-0.1,8.4,0C7.9,0.2,7.6,0.7,7.7,1.2l0.7,2.6C8.6,4.3,9.1,4.6,9.6,4.5z M14.2,4.2 c-0.2,0.2-0.6,0.3-0.9,0.2c-0.5-0.1-0.8-0.6-0.7-1.1l0.7-2.6C13.5,0.2,14-0.1,14.5,0c0.5,0.1,0.8,0.6,0.7,1.1l-0.7,2.6 C14.4,4,14.3,4.1,14.2,4.2z"/>
            <path fill="#FFFFFF" d="M8.6,8.6c0.8-0.8,2.2-1,3-0.2c0,0,5.9,5.9,7.3,7.3c0,0,0,0,0,0l0.3,0.3c0.1,0.1,0.4,0.1,0.5,0 c0.1-0.1,0.1-0.4,0-0.5l-0.1-0.1c-0.9-0.9-0.8-2.3,0-3.2c0.9-0.9,2.3-0.9,3.2,0l1.2,1.2c0.1,0.1,0.4,0.1,0.5,0 c0.1-0.1,0.1-0.4,0-0.5l-0.1-0.1c-0.8-0.8-0.6-2.1,0.2-3C25.6,9,27,9,27.9,9.9l1.2,1.2c0.1,0.1,0.4,0.1,0.5,0c0.1-0.1,0.1-0.4,0-0.5 l-0.1-0.1c-0.7-0.7-0.5-2.1,0.3-2.9c0.9-0.9,2.3-0.9,3.2,0l2.9,2.9c2.7,2.7,5.8,7.9-0.8,14.5c-7.8,7.8-12.8,4.9-16.9,0.5 c-1-1.1-0.7-2.5,0-3.3l1.9,1.9c0.2,0.2,0.4,0.1,0.5,0.1c0,0,0.2-0.2-0.1-0.5L8.6,11.8C7.7,10.9,7.7,9.5,8.6,8.6z"/>
            <path fill="#5446FF" d="M8.6,8.6c0.8-0.8,2.2-1,3-0.2c0,0,5.9,5.9,7.3,7.3c0,0,0,0,0,0l0.3,0.3c0.1,0.1,0.4,0.1,0.5,0 c0.1-0.1,0.1-0.4,0-0.5l-0.1-0.1c-0.9-0.9-0.8-2.3,0-3.2c0.9-0.9,2.3-0.9,3.2,0l1.2,1.2c0.1,0.1,0.4,0.1,0.5,0 c0.1-0.1,0.1-0.4,0-0.5l-0.1-0.1c-0.8-0.8-0.6-2.1,0.2-3C25.6,9,27,9,27.9,9.9l1.2,1.2c0.1,0.1,0.4,0.1,0.5,0c0.1-0.1,0.1-0.4,0-0.5 l-0.1-0.1c-0.7-0.7-0.5-2.1,0.3-2.9c0.9-0.9,2.3-0.9,3.2,0l2.9,2.9c2.7,2.7,5.8,7.9-0.8,14.5c-7.8,7.8-12.8,4.9-16.9,0.5 c-1-1.1-0.7-2.5,0-3.3l1.9,1.9c0.2,0.2,0.4,0.1,0.5,0.1c0,0,0.2-0.2-0.1-0.5C20.3,23.5,8.6,11.8,8.6,11.8C7.7,10.9,7.7,9.5,8.6,8.6z  M7.3,7.3c-1.6,1.6-1.6,4.2,0,5.8l8.9,8.9c-0.7,1.4-0.7,3.4,0.7,4.8c2.1,2.3,5.1,4.9,9.1,4.9c3.4,0,6.8-1.7,10.5-5.4 c3.3-3.3,4.8-6.7,4.4-10.2c-0.3-2.4-1.5-4.8-3.6-6.9l-2.9-2.9c-1.6-1.6-4.2-1.6-5.8,0c-0.4,0.4-0.7,0.8-0.9,1.3 c-1.4-0.5-3.1-0.1-4.2,1C23,9,22.7,9.4,22.4,9.9c-1.4-0.4-3-0.1-4.1,1c-0.3,0.3-0.5,0.6-0.7,0.9c-0.3-0.3-0.5-0.6-0.8-0.8l-2.7-2.7 c-0.7-0.7-1.1-1.1-1.3-1.2l0,0C11.4,5.6,8.8,5.7,7.3,7.3z"/>
        </symbol>
        <symbol id="icon-about-decor" viewBox="0 0 30 30">
            <path d="M6 0H0V30H6V0Z" fill="white"/>
            <path d="M30.0002 0H28.2002V30H30.0002V0Z" fill="white"/>
            <path d="M23.5 0H20.5V30H23.5V0Z" fill="white"/>
            <path d="M15.5998 0H10.7998V30H15.5998V0Z" fill="white"/>
        </symbol>
        <symbol id="icon-close" viewBox="0 0 32.8 31.8">
            <path fill="none" stroke="currentColor" stroke-width="2.0728" stroke-linecap="round" d="M1,1l30.7,29.7 M1.8,30.8L31.2,1.4"/>
        </symbol>
        <symbol id="icon-market" viewBox="0 0 20 18">
            <path d="M13.9798 4.74548H15.7006L13.1496 0.368964C12.9441 0.0143287 12.4887 -0.10657 12.1341 0.102987C11.7795 0.308514 11.6586 0.763898 11.8681 1.11853L13.9798 4.74548Z" fill="white"/>
						<path d="M8.14009 1.1187C8.34562 0.76406 8.22875 0.308677 7.87412 0.103149C7.51948 -0.102378 7.0641 0.0144907 6.85857 0.369126L4.30762 4.74967H6.0284L8.14009 1.1187Z" fill="white"/>
						<path d="M18.5495 6.0874H1.44643C0.749251 6.0874 0.185059 6.65159 0.185059 7.34877V8.74716C0.185059 9.44434 0.749251 10.0085 1.44643 10.0085H1.84137L3.05841 16.6056C3.21155 17.3833 3.92082 17.9999 4.6583 17.9999H5.14189H8.31748C8.63988 17.9999 9.05899 17.9999 9.48617 17.9999H9.87304H10.2599C10.6871 17.9999 11.1062 17.9999 11.4286 17.9999H14.6042H15.0878C15.8253 17.9999 16.5345 17.3833 16.6877 16.6056L17.9128 10.0045H18.5535C19.2507 10.0045 19.8149 9.44031 19.8149 8.74313V7.34474C19.8109 6.65159 19.2467 6.0874 18.5495 6.0874ZM7.1488 12.6804V15.5255C7.1488 15.9326 6.81835 16.2388 6.4355 16.2388C6.02848 16.2388 5.7222 15.9084 5.7222 15.5255V14.3327V11.5359C5.7222 11.1289 6.05266 10.8226 6.4355 10.8226C6.84253 10.8226 7.1488 11.153 7.1488 11.5359V12.6804ZM9.43781 12.6804V15.5255C9.43781 15.9326 9.10735 16.2388 8.72451 16.2388C8.31748 16.2388 8.01121 15.9084 8.01121 15.5255V14.3327V11.5359C8.01121 11.1289 8.34166 10.8226 8.72451 10.8226C9.10735 10.8226 9.43781 11.153 9.43781 11.5359V12.6804ZM11.7389 14.3327V15.5255C11.7389 15.9084 11.4326 16.2388 11.0256 16.2388C10.6428 16.2388 10.3123 15.9326 10.3123 15.5255V12.6804V11.5359C10.3123 11.153 10.6428 10.8226 11.0256 10.8226C11.4085 10.8226 11.7389 11.1289 11.7389 11.5359V14.3327ZM14.0279 14.3327V15.5255C14.0279 15.9084 13.7216 16.2388 13.3146 16.2388C12.9318 16.2388 12.6013 15.9326 12.6013 15.5255V12.6804V11.5359C12.6013 11.153 12.9076 10.8226 13.3146 10.8226C13.6975 10.8226 14.0279 11.1289 14.0279 11.5359V14.3327Z" fill="white"/>
        </symbol>
        <symbol id="icon-cursor-loc" viewBox="0 0 32 32">
            <path d="M8.75484 11.2846L14.3056 27.9368C14.9004 29.7213 17.4058 29.7723 18.0729 28.0136L20.8066 20.8066L28.0137 18.0729C29.7724 17.4058 29.7213 14.9003 27.9368 14.3055L11.2847 8.75479C9.72114 8.23362 8.23367 9.7211 8.75484 11.2846Z" fill="white" stroke="#5446FF" stroke-width="2"/>
        </symbol>
        <symbol id="icon-share" viewBox="0 0 858.1 980">
            <path fill="currentColor" d="M678,2.6c-72.4,14.6-130.6,87.5-125.8,158c1,14.2,4.2,30.8,7.9,40.2c1,2.1-34.5,24.9-142.7,91.9 c-79.3,49-146.1,90.2-148.6,91.5c-4.2,2.3-5.4,1.9-15.5-6.9c-38.3-33.1-81.8-46.2-125.3-37.9C57.9,352.9,0,420.9,0,490 c0,48.1,29.5,99.2,73.6,128.1c58,37.9,124.5,32.2,179.7-15.5c8.8-7.5,11.7-9,14.4-7.7c3.5,1.9,292.3,180.4,293,181 c0.2,0.2-1.3,6.5-3.5,13.8c-14.2,49.8,1.5,103.8,41.4,143.7c37,37.2,86.4,53.4,132.5,43.9c70.5-14.6,127-81.4,127-150.2 c0-48.1-29.5-99.2-73.5-128.1c-58.2-37.9-124.5-32.2-179.7,15.5c-8.8,7.5-11.7,9-14.4,7.7c-3.5-1.9-292.3-180.4-293.1-181 c-0.2-0.2,1.5-6.5,3.6-13.8c5.8-19,5.8-55.7,0-74.7c-2.1-7.3-3.8-13.6-3.6-13.8c0.8-0.8,289.6-179.1,293.1-181 c2.7-1.3,5.5,0.2,14.4,7.7c38.7,33.5,82.7,46.5,126.2,37.5c61.1-12.6,111.3-62.8,123.9-123.9c9.6-46.2-6.7-95.6-43.9-132.5 C774.4,9.7,724.6-6.8,678,2.6z M726.3,63.1c45.2,9.4,73.7,49.6,69.9,98.3c-3.5,46.4-36.6,79.5-82.9,82.9 c-57.1,4.4-100.4-34.9-100.4-91.4C612.9,91.7,665.2,50.3,726.3,63.1z M187.9,404.4c33.3,12.1,53.8,40.2,56.7,78.1 c4.4,56.5-35.1,99.4-91.4,99.4c-61.1,0-101.1-50-89.8-112.2c6.3-34.5,33.7-62.6,67.8-69.5C146.7,397.2,173.3,399.1,187.9,404.4z  M726.3,737.3c42.1,8.8,70.5,44.8,70.5,89.8c0,53.3-38.7,91.9-91.9,91.9c-53.3,0-91.9-38.7-91.9-91.9 C612.9,765.9,665.2,724.5,726.3,737.3z"/>
        </symbol>
        <symbol id="icon-twitter" viewBox="0 0 20 16">
            <path fill="currentColor" d="M20,1.9c-0.7,0.3-1.5,0.5-2.4,0.6c0.8-0.5,1.5-1.3,1.8-2.2c-0.8,0.5-1.7,0.8-2.6,1C16.1,0.5,15,0,13.8,0 c-2.3,0-4.1,1.8-4.1,4c0,0.3,0,0.6,0.1,0.9C6.4,4.8,3.4,3.2,1.4,0.7C1,1.3,0.8,2,0.8,2.8c0,1.4,0.7,2.6,1.8,3.4 C2,6.1,1.3,5.9,0.8,5.6c0,0,0,0,0,0c0,2,1.4,3.6,3.3,4C3.8,9.7,3.4,9.8,3,9.8c-0.3,0-0.5,0-0.8-0.1c0.5,1.6,2,2.8,3.8,2.8 c-1.4,1.1-3.2,1.7-5.1,1.7c-0.3,0-0.7,0-1-0.1C1.8,15.3,4,16,6.3,16C13.8,16,18,9.8,18,4.5c0-0.2,0-0.4,0-0.5 C18.8,3.4,19.4,2.7,20,1.9z"/>
        </symbol>
        <symbol id="icon-vk" viewBox="0 0 29.3 17.3">
            <path fill="currentColor" d="M25.2,11c1,1,2,1.9,2.9,3c0.4,0.5,0.8,1,1,1.5c0.4,0.8,0,1.7-0.7,1.7l-4.3,0c-1.1,0.1-2-0.4-2.7-1.2 c-0.6-0.6-1.1-1.3-1.7-1.9c-0.2-0.3-0.5-0.5-0.8-0.7c-0.6-0.4-1.1-0.3-1.4,0.4c-0.3,0.6-0.4,1.4-0.4,2.1c0,1.1-0.3,1.3-1.4,1.4 c-2.2,0.1-4.2-0.2-6.1-1.4c-1.7-1-3-2.4-4.1-4C3.4,8.8,1.7,5.4,0.1,1.8C-0.2,1,0.1,0.6,0.9,0.6c1.4,0,2.8,0,4.2,0 C5.6,0.6,6,1,6.2,1.5C7,3.4,7.9,5.3,9.1,7c0.3,0.5,0.6,0.9,1.1,1.2c0.5,0.4,0.9,0.2,1.1-0.3c0.1-0.4,0.2-0.8,0.2-1.2 c0.1-1.3,0.1-2.7-0.1-4c-0.1-0.8-0.6-1.4-1.4-1.5C9.7,1.1,9.7,0.9,9.9,0.7C10.3,0.3,10.6,0,11.2,0H16c0.8,0.2,0.9,0.5,1,1.3l0,5.6 c0,0.3,0.1,1.2,0.7,1.4c0.4,0.1,0.7-0.2,1-0.5c1.2-1.3,2-2.8,2.7-4.4c0.3-0.7,0.6-1.4,0.9-2.1c0.2-0.5,0.5-0.8,1.1-0.8l4.6,0 c0.1,0,0.3,0,0.4,0c0.8,0.1,1,0.5,0.8,1.3c-0.4,1.3-1.1,2.3-1.8,3.3c-0.8,1.1-1.6,2.2-2.4,3.3C24.3,9.6,24.4,10.1,25.2,11z"/>
        </symbol>
        <symbol id="icon-fb" viewBox="0 0 13.3 25.3">
            <path fill="currentColor" d="M12.8,0L9.6,0C6,0,3.7,2.4,3.7,6.2v2.9H0.5C0.2,9.1,0,9.3,0,9.6v4.2c0,0.3,0.2,0.5,0.5,0.5h3.2v10.5 c0,0.3,0.2,0.5,0.5,0.5h4.2c0.3,0,0.5-0.2,0.5-0.5V14.3h3.8c0.3,0,0.5-0.2,0.5-0.5l0-4.2c0-0.1-0.1-0.3-0.1-0.4 c-0.1-0.1-0.2-0.2-0.4-0.2H8.9V6.7c0-1.2,0.3-1.8,1.8-1.8l2.2,0c0.3,0,0.5-0.2,0.5-0.5V0.5C13.3,0.2,13.1,0,12.8,0z"/>
        </symbol>
        <symbol id="icon-map-build" viewBox="0 0 42 42">
					<g filter="url(#filter0_d)">
					<g clip-path="url(#clip0)">
					<path d="M6 19C6 10.7157 12.7157 4 21 4C29.2843 4 36 10.7157 36 19C36 27.2843 29.2843 34 21 34C12.7157 34 6 27.2843 6 19Z" fill="#5446FF"/>
					<path fill-rule="evenodd" clip-rule="evenodd" d="M29.1739 15.318H12.818C12.4324 15.318 12.0992 15.0486 12.0184 14.6716C11.9372 14.2946 12.1306 13.9122 12.4826 13.7536L20.6613 10.0718C20.875 9.97605 21.1189 9.97605 21.3322 10.0718L29.4474 13.7252C29.7687 13.8356 30 14.1402 30 14.4996C30 14.9517 29.6343 15.318 29.182 15.318H29.1739ZM13.8402 24.2355C13.3882 24.2355 13.0221 24.6018 13.0221 25.0539C13.0221 25.506 13.3882 25.8727 13.8402 25.8727H28.1517C28.6037 25.8727 28.9698 25.506 28.9698 25.0539C28.9698 24.6018 28.6037 24.2355 28.1517 24.2355H27.9476V16.8713H28.1517C28.3781 16.8713 28.5604 16.6881 28.5604 16.4625C28.5604 16.2368 28.3773 16.0536 28.1517 16.0536H13.8402C13.6142 16.0536 13.4315 16.2368 13.4315 16.4625C13.4315 16.6881 13.6146 16.8713 13.8402 16.8713H14.0447V24.2351H13.8402V24.2355ZM26.3116 16.8713V24.2351H23.8583V16.8713H26.3116ZM22.2222 16.8713V24.2351H19.7689V16.8713H22.2222ZM15.6799 16.8713H18.1332V24.2351H15.6799V16.8713ZM29.1743 26.3632H12.818C12.3661 26.3632 12 26.7295 12 27.182C12 27.6337 12.3661 28 12.818 28H29.1739C29.6258 28 29.9919 27.6337 29.9919 27.182C29.9916 26.7295 29.6254 26.3632 29.1743 26.3632Z" fill="white"/>
					</g>
					<path d="M21 32C13.8203 32 8 26.1797 8 19H4C4 28.3888 11.6112 36 21 36V32ZM34 19C34 26.1797 28.1797 32 21 32V36C30.3888 36 38 28.3888 38 19H34ZM21 6C28.1797 6 34 11.8203 34 19H38C38 9.61116 30.3888 2 21 2V6ZM21 2C11.6112 2 4 9.61116 4 19H8C8 11.8203 13.8203 6 21 6V2Z" fill="white"/>
					</g>
					<defs>
					<filter id="filter0_d" x="0" y="0" width="42" height="42" filterUnits="userSpaceOnUse" color-interpolation-filters="sRGB">
					<feFlood flood-opacity="0" result="BackgroundImageFix"/>
					<feColorMatrix in="SourceAlpha" type="matrix" values="0 0 0 0 0 0 0 0 0 0 0 0 0 0 0 0 0 0 127 0"/>
					<feOffset dy="2"/>
					<feGaussianBlur stdDeviation="2"/>
					<feColorMatrix type="matrix" values="0 0 0 0 0.0980392 0 0 0 0 0.0823529 0 0 0 0 0.239216 0 0 0 0.5 0"/>
					<feBlend mode="normal" in2="BackgroundImageFix" result="effect1_dropShadow"/>
					<feBlend mode="normal" in="SourceGraphic" in2="effect1_dropShadow" result="shape"/>
					</filter>
					<clipPath id="clip0">
					<path d="M6 19C6 10.7157 12.7157 4 21 4C29.2843 4 36 10.7157 36 19C36 27.2843 29.2843 34 21 34C12.7157 34 6 27.2843 6 19Z" fill="white"/>
					</clipPath>
					</defs>
        </symbol>
        <symbol id="icon-map-office" viewBox="0 0 42 42">
					<g filter="url(#filter0_d)">
						<g clip-path="url(#clip0)">
						<path d="M6 19C6 10.7157 12.7157 4 21 4C29.2843 4 36 10.7157 36 19C36 27.2843 29.2843 34 21 34C12.7157 34 6 27.2843 6 19Z" fill="#5446FF"/>
						<path d="M28.0624 26.4491V26.0605C28.0624 25.895 27.96 25.7449 27.7994 25.6737C27.6971 25.6281 25.3319 24.6042 21.4618 24.5257V23.0621C21.7372 22.9139 21.9237 22.6401 21.9237 22.3238V21.8509H25.1998C25.2027 21.8509 25.2069 21.8509 25.2089 21.8509C25.7191 21.8509 26.1327 21.4668 26.1327 20.9939C26.1327 20.9223 26.1224 20.8534 26.1046 20.7871C26.9108 20.5401 27.3343 20.3165 27.3718 20.2955C27.513 20.2189 27.6001 20.0783 27.6001 19.9255V17.582H28.038C28.2935 17.582 28.4999 17.3902 28.4999 17.1535C28.4999 16.9169 28.2935 16.725 28.038 16.725H26.2388C25.9837 16.725 25.7773 16.9169 25.7773 17.1535C25.7773 17.3902 25.9837 17.582 26.2388 17.582H26.6771V19.6609C26.4509 19.7574 26.0567 19.9079 25.5012 20.0603L25.1883 19.7701C24.977 19.574 24.6756 19.4844 24.3805 19.5307C24.3702 19.5323 23.4493 19.6728 21.9241 19.7172V18.9686C23.6057 18.8717 24.461 18.5347 24.5667 18.4903C24.9278 18.3387 25.1441 17.9898 25.1045 17.6238L24.3966 11.0998C24.3628 10.7877 24.1477 10.5173 23.8365 10.3956C23.7325 10.355 22.7724 10 21 10C19.2275 10 18.2679 10.355 18.1643 10.3956C17.8522 10.5173 17.6376 10.7873 17.6037 11.0998L16.8958 17.6253C16.8558 17.9914 17.0725 18.3402 17.4341 18.4919C17.5393 18.5359 18.3946 18.8733 20.0762 18.9701V19.7188C18.551 19.6743 17.6305 19.5346 17.6206 19.5323C17.3234 19.4852 17.0242 19.5748 16.812 19.7716L16.4996 20.0619C15.9432 19.9095 15.549 19.759 15.3236 19.6625V17.5839H15.7615C16.017 17.5839 16.2234 17.3921 16.2234 17.1554C16.2234 16.9188 16.017 16.7269 15.7615 16.7269H13.9619C13.7064 16.7269 13.5 16.9188 13.5 17.1554C13.5 17.3921 13.7064 17.5839 13.9619 17.5839H14.3998V19.9275C14.3998 20.0791 14.4869 20.2208 14.6281 20.2977C14.6673 20.3188 15.0929 20.5451 15.9081 20.7929C15.8623 20.9663 15.8697 21.1521 15.9469 21.324C16.0901 21.6441 16.4269 21.8528 16.8005 21.8528H20.0766V22.3261C20.0766 22.6424 20.2632 22.9155 20.5385 23.0644V24.528C16.668 24.6057 14.3037 25.6297 14.2009 25.6752C14.0407 25.7468 13.9384 25.8973 13.9384 26.062V26.4514C13.6771 26.5977 13.5004 26.8608 13.5004 27.1648C13.5004 27.6259 13.9041 28 14.4002 28C14.8976 28 15.3005 27.6259 15.3005 27.1648C15.3005 26.8608 15.1238 26.5973 14.8621 26.4514V26.3465C15.556 26.0907 17.5893 25.4466 20.5385 25.3842V26.4514C20.2772 26.5977 20.1005 26.8608 20.1005 27.1648C20.1005 27.6259 20.5042 28 21.0004 28C21.4978 28 21.9006 27.6259 21.9006 27.1648C21.9006 26.8608 21.7239 26.5973 21.4623 26.4514V25.3842C24.4003 25.4474 26.4414 26.0915 27.1386 26.3465V26.4514C26.8769 26.5977 26.7002 26.8608 26.7002 27.1648C26.7002 27.6259 27.1043 28 27.6005 28C28.0975 28 28.5003 27.6259 28.5003 27.1648C28.4999 26.8585 28.3241 26.595 28.0624 26.4491ZM19.5247 12.4753C19.5454 12.4672 20.0485 12.2742 21 12.2742C21.9514 12.2742 22.4541 12.4672 22.4752 12.4753C22.5928 12.5216 22.6481 12.6472 22.5986 12.7559C22.561 12.8375 22.4752 12.8869 22.3856 12.8869C22.3555 12.8869 22.3253 12.8812 22.2952 12.8701C22.2919 12.8685 21.8478 12.7027 20.9995 12.7027C20.1513 12.7027 19.7072 12.8685 19.7026 12.8704C19.585 12.916 19.4504 12.8635 19.4013 12.7548C19.3526 12.646 19.4079 12.5208 19.5247 12.4753ZM19.294 13.7761C19.3179 13.7669 19.897 13.5448 21.0004 13.5448C22.1037 13.5448 22.6828 13.7669 22.7067 13.7761C22.8244 13.8224 22.8797 13.948 22.8306 14.0568C22.7926 14.1383 22.7067 14.1877 22.6172 14.1877C22.587 14.1877 22.5569 14.1824 22.5272 14.1709C22.5222 14.1693 21.9997 13.9729 21.0004 13.9729C20.0011 13.9729 19.4781 14.169 19.4727 14.1713C19.3551 14.2164 19.2205 14.1647 19.1714 14.056C19.1223 13.9472 19.1764 13.822 19.294 13.7761ZM21 15.2431C19.8496 15.2431 19.2474 15.4694 19.2416 15.4717C19.1231 15.5165 18.989 15.4659 18.9394 15.3568C18.8907 15.2477 18.9456 15.1228 19.0628 15.0769C19.0897 15.0662 19.7456 14.8146 21 14.8146C22.2543 14.8146 22.9102 15.0662 22.9371 15.0769C23.0539 15.1228 23.1088 15.2477 23.0605 15.3568C23.0225 15.4388 22.9371 15.4882 22.8467 15.4882C22.8169 15.4882 22.7868 15.4828 22.7575 15.4717C22.753 15.4698 22.1507 15.2431 21 15.2431Z" fill="white"/>
						</g>
						<path d="M21 32C13.8203 32 8 26.1797 8 19H4C4 28.3888 11.6112 36 21 36V32ZM34 19C34 26.1797 28.1797 32 21 32V36C30.3888 36 38 28.3888 38 19H34ZM21 6C28.1797 6 34 11.8203 34 19H38C38 9.61116 30.3888 2 21 2V6ZM21 2C11.6112 2 4 9.61116 4 19H8C8 11.8203 13.8203 6 21 6V2Z" fill="white"/>
						</g>
						<defs>
						<filter id="filter0_d" x="0" y="0" width="42" height="42" filterUnits="userSpaceOnUse" color-interpolation-filters="sRGB">
						<feFlood flood-opacity="0" result="BackgroundImageFix"/>
						<feColorMatrix in="SourceAlpha" type="matrix" values="0 0 0 0 0 0 0 0 0 0 0 0 0 0 0 0 0 0 127 0"/>
						<feOffset dy="2"/>
						<feGaussianBlur stdDeviation="2"/>
						<feColorMatrix type="matrix" values="0 0 0 0 0.0980392 0 0 0 0 0.0823529 0 0 0 0 0.239216 0 0 0 0.5 0"/>
						<feBlend mode="normal" in2="BackgroundImageFix" result="effect1_dropShadow"/>
						<feBlend mode="normal" in="SourceGraphic" in2="effect1_dropShadow" result="shape"/>
						</filter>
						<clipPath id="clip0">
						<path d="M6 19C6 10.7157 12.7157 4 21 4C29.2843 4 36 10.7157 36 19C36 27.2843 29.2843 34 21 34C12.7157 34 6 27.2843 6 19Z" fill="white"/>
						</clipPath>
						</defs>
        </symbol>
    </defs>
</svg>