<?xml version="1.0" encoding="utf-8"?>
<!-- Generator: Adobe Illustrator 22.1.0, SVG Export Plug-In . SVG Version: 6.00 Build 0)  -->
<svg version="1.1" id="Слой_1" xmlns="http://www.w3.org/2000/svg" xmlns:xlink="http://www.w3.org/1999/xlink" x="0px" y="0px"
	 viewBox="0 0 40.9 31.7" style="enable-background:new 0 0 40.9 31.7;" xml:space="preserve">
<style type="text/css">
	.st0{fill="#FFFFFF"}
	.st1{fill="#5446FF"}
</style>
<path fill="#FFFFFF" d="M6.3,6.3C6,6.7,5.4,6.7,5,6.3L3.1,4.4C2.7,4,2.7,3.5,3.1,3.1c0.4-0.4,0.9-0.4,1.3,0L6.3,5
	C6.7,5.4,6.7,6,6.3,6.3z M3.3,10.2c0.3,0.1,0.7,0,0.9-0.2c0.1-0.1,0.2-0.3,0.2-0.4c0.1-0.5-0.2-1-0.7-1.1L1.2,7.7
	C0.7,7.6,0.2,7.9,0,8.4c-0.1,0.5,0.2,1,0.7,1.1L3.3,10.2z M3.8,14.5c0.2,0,0.3-0.1,0.4-0.2c0.2-0.2,0.3-0.6,0.2-0.9
	c-0.1-0.5-0.6-0.8-1.1-0.7l-2.6,0.7C0.2,13.5-0.1,14,0,14.5c0.1,0.5,0.6,0.8,1.1,0.7L3.8,14.5z M9.6,4.5c0.2,0,0.3-0.1,0.4-0.2
	c0.2-0.2,0.3-0.6,0.2-0.9L9.5,0.7C9.4,0.2,8.9-0.1,8.4,0C7.9,0.2,7.6,0.7,7.7,1.2l0.7,2.6C8.6,4.3,9.1,4.6,9.6,4.5z M14.2,4.2
	c-0.2,0.2-0.6,0.3-0.9,0.2c-0.5-0.1-0.8-0.6-0.7-1.1l0.7-2.6C13.5,0.2,14-0.1,14.5,0c0.5,0.1,0.8,0.6,0.7,1.1l-0.7,2.6
	C14.4,4,14.3,4.1,14.2,4.2z"/>
<path fill="#FFFFFF" d="M8.6,8.6c0.8-0.8,2.2-1,3-0.2c0,0,5.9,5.9,7.3,7.3c0,0,0,0,0,0l0.3,0.3c0.1,0.1,0.4,0.1,0.5,0
	c0.1-0.1,0.1-0.4,0-0.5l-0.1-0.1c-0.9-0.9-0.8-2.3,0-3.2c0.9-0.9,2.3-0.9,3.2,0l1.2,1.2c0.1,0.1,0.4,0.1,0.5,0
	c0.1-0.1,0.1-0.4,0-0.5l-0.1-0.1c-0.8-0.8-0.6-2.1,0.2-3C25.6,9,27,9,27.9,9.9l1.2,1.2c0.1,0.1,0.4,0.1,0.5,0c0.1-0.1,0.1-0.4,0-0.5
	l-0.1-0.1c-0.7-0.7-0.5-2.1,0.3-2.9c0.9-0.9,2.3-0.9,3.2,0l2.9,2.9c2.7,2.7,5.8,7.9-0.8,14.5c-7.8,7.8-12.8,4.9-16.9,0.5
	c-1-1.1-0.7-2.5,0-3.3l1.9,1.9c0.2,0.2,0.4,0.1,0.5,0.1c0,0,0.2-0.2-0.1-0.5L8.6,11.8C7.7,10.9,7.7,9.5,8.6,8.6z"/>
<path fill="#5446FF" d="M8.6,8.6c0.8-0.8,2.2-1,3-0.2c0,0,5.9,5.9,7.3,7.3c0,0,0,0,0,0l0.3,0.3c0.1,0.1,0.4,0.1,0.5,0
	c0.1-0.1,0.1-0.4,0-0.5l-0.1-0.1c-0.9-0.9-0.8-2.3,0-3.2c0.9-0.9,2.3-0.9,3.2,0l1.2,1.2c0.1,0.1,0.4,0.1,0.5,0
	c0.1-0.1,0.1-0.4,0-0.5l-0.1-0.1c-0.8-0.8-0.6-2.1,0.2-3C25.6,9,27,9,27.9,9.9l1.2,1.2c0.1,0.1,0.4,0.1,0.5,0c0.1-0.1,0.1-0.4,0-0.5
	l-0.1-0.1c-0.7-0.7-0.5-2.1,0.3-2.9c0.9-0.9,2.3-0.9,3.2,0l2.9,2.9c2.7,2.7,5.8,7.9-0.8,14.5c-7.8,7.8-12.8,4.9-16.9,0.5
	c-1-1.1-0.7-2.5,0-3.3l1.9,1.9c0.2,0.2,0.4,0.1,0.5,0.1c0,0,0.2-0.2-0.1-0.5C20.3,23.5,8.6,11.8,8.6,11.8C7.7,10.9,7.7,9.5,8.6,8.6z
	 M7.3,7.3c-1.6,1.6-1.6,4.2,0,5.8l8.9,8.9c-0.7,1.4-0.7,3.4,0.7,4.8c2.1,2.3,5.1,4.9,9.1,4.9c3.4,0,6.8-1.7,10.5-5.4
	c3.3-3.3,4.8-6.7,4.4-10.2c-0.3-2.4-1.5-4.8-3.6-6.9l-2.9-2.9c-1.6-1.6-4.2-1.6-5.8,0c-0.4,0.4-0.7,0.8-0.9,1.3
	c-1.4-0.5-3.1-0.1-4.2,1C23,9,22.7,9.4,22.4,9.9c-1.4-0.4-3-0.1-4.1,1c-0.3,0.3-0.5,0.6-0.7,0.9c-0.3-0.3-0.5-0.6-0.8-0.8l-2.7-2.7
	c-0.7-0.7-1.1-1.1-1.3-1.2l0,0C11.4,5.6,8.8,5.7,7.3,7.3z"/>
</svg>
