<?xml version="1.0" encoding="utf-8"?>
<!-- Generator: Adobe Illustrator 22.1.0, SVG Export Plug-In . SVG Version: 6.00 Build 0)  -->
<svg version="1.1" id="Слой_1" xmlns="http://www.w3.org/2000/svg" xmlns:xlink="http://www.w3.org/1999/xlink" x="0px" y="0px"
	 viewBox="0 0 38.3 38.2" style="enable-background:new 0 0 38.3 38.2;" xml:space="preserve">
<style type="text/css">
	.st0{fill:#FFFFFF;}
</style>
<path class="st0" d="M3.2,16.3c0,7.3,5.9,13.1,13.1,13.1c7.3,0,13.1-5.9,13.1-13.1c0-7.3-5.9-13.1-13.1-13.1
	C9.1,3.2,3.2,9.1,3.2,16.3z M29,26.7l8.9,8.9c0.6,0.6,0.6,1.6,0,2.3c-0.6,0.6-1.9,0.4-2.3,0L26.7,29c-2.8,2.3-6.4,3.7-10.4,3.7
	C7.3,32.7,0,25.4,0,16.3C0,7.3,7.3,0,16.3,0c9,0,16.3,7.3,16.3,16.3C32.7,20.3,31.3,23.9,29,26.7z M17.9,14.7h3.9
	c0.9,0,1.6,0.7,1.6,1.6c0,0.9-0.7,1.6-1.6,1.6h-3.9v3.9c0,0.9-0.7,1.6-1.6,1.6c-0.9,0-1.6-0.7-1.6-1.6v-3.9h-3.9
	c-0.9,0-1.6-0.7-1.6-1.6c0-0.9,0.7-1.6,1.6-1.6h3.9v-3.9c0-0.9,0.7-1.6,1.6-1.6c0.9,0,1.6,0.7,1.6,1.6V14.7z"/>
</svg>
